<svg xmlns="http://www.w3.org/2000/svg" xmlns:xlink="http://www.w3.org/1999/xlink" xmlns:lucid="lucid" width="1113" height="856"><g transform="translate(-242 -139)" lucid:page-tab-id="0_0"><path d="M0 0h1760v1360H0z" fill="#fff"/><path d="M694.07 340.5l.05 10.1m.06 10.07l.1 20.18m.06 10.1l.1 20.16m.07 10.1l.12 20.17m.05 10.1l.1 20.16m.07 10.1l.1 20.17m.06 10.08l.1 20.18m.07 10.08l.1 20.18m.06 10.1l.1 20.16m.07 10.1l.1 20.16m.06 10.1l.1 20.16m.07 10.1l.1 20.17m.06 10.08l.1 20.18m.06 10.1l.1 20.16m.06 10.08l.1 20.17m.07 10.1l.1 20.16m.05 10.1l.1 20.17m.07 10.1l.1 20.17m.06 10.08l.1 20.18m.07 10.1l.1 20.16m.06 10.1l.12 20.16m.06 10.1l.1 20.16m.06 10.1l.1 20.17m.07 10.08l.12 20.18m.05 10.1l.1 20.17m.07 10.1l.1 20.16m.06 10.1l.1 20.16m.06 10.08l.1 20.17m.07 10.1l.05 10.08" stroke="#333" fill="none"/><path d="M694.57 340.5l-1 .02V340h1z" fill="#333"/><path d="M698.68 1187.82v.5" stroke="#333" fill="none"/><path d="M679.76 468c0-4.42 3.58-8 8-8h24c4.42 0 8 3.58 8 8v424c0 4.42-3.58 8-8 8h-24c-4.42 0-8-3.58-8-8z" stroke="#f2f2f2" fill="#d2d3d5"/><path d="M1059.52 340.5v10.14m0 10.13v20.28m0 10.14v20.26m0 10.14v20.27m0 10.14v20.28m0 10.14v20.27m0 10.13v20.27m0 10.14v20.28m0 10.13v20.28m0 10.13v20.28m0 10.14v20.27m0 10.14v20.26m0 10.14v20.27m0 10.14V746m0 10.14v20.28m0 10.13v20.28m0 10.14v20.28m0 10.13v20.28m0 10.14v20.27m0 10.14v20.27m0 10.14v20.26m0 10.14v20.27m0 10.14v20.3m0 10.12v20.28m0 10.13v20.28m0 10.15v20.27m0 10.14v20.27m0 10.14v10.13" stroke="#333" fill="none"/><path d="M1060.02 340.5h-1v-.5h1z" fill="#333"/><path d="M1059.52 1161.6v.5" stroke="#333" fill="none"/><path d="M1039.52 628c0-4.42 3.58-8 8-8h24c4.42 0 8 3.58 8 8v164c0 4.42-3.58 8-8 8h-24c-4.42 0-8-3.58-8-8z" stroke="#f2f2f2" fill="#d2d3d5"/><path d="M599.03 228c0-4.42 3.58-8 8-8H781.1c4.42 0 8 3.58 8 8v104c0 4.42-3.58 8-8 8H607.03c-4.42 0-8-3.58-8-8z" stroke="#000" stroke-opacity="0" fill="#ffbd50"/><use xlink:href="#a" transform="matrix(1,0,0,1,607.0290697254436,228) translate(19.31481481481481 55.111111111111114)"/><use xlink:href="#b" transform="matrix(1,0,0,1,607.0290697254436,228) translate(119.38888888888889 55.111111111111114)"/><path d="M964.48 228c0-4.42 3.6-8 8-8h174.08c4.42 0 8 3.58 8 8v104c0 4.42-3.58 8-8 8H972.48c-4.4 0-8-3.58-8-8z" stroke="#000" stroke-opacity="0" fill="#ffcc78"/><use xlink:href="#c" transform="matrix(1,0,0,1,972.4836879544767,228) translate(51.2253086419753 55.111111111111114)"/><use xlink:href="#d" transform="matrix(1,0,0,1,972.4836879544767,228) translate(88.34259259259258 55.111111111111114)"/><path d="M403.4 259.75c0 10.9-8.84 19.75-19.75 19.75-10.9 0-19.75-8.84-19.75-19.75 0-10.9 8.84-19.75 19.75-19.75 10.9 0 19.75 8.84 19.75 19.75z" stroke="#333" fill="#fff"/><path d="M383.65 279.5v47.3c0 4.42 1.92 11.03 4.28 14.76L423.65 398m-40-63.2l-40 63.2m0-98.75h80" stroke="#333" fill="none"/><path d="M343.65 248c0-4.42 3.58-8 8-8h64c4.42 0 8 3.58 8 8v164c0 4.42-3.58 8-8 8h-64c-4.42 0-8-3.58-8-8z" fill="none"/><use xlink:href="#e" transform="matrix(1,0,0,1,263.6496896262573,398) translate(101.87345679012346 14.11111111111111)"/><path d="M387.56 1161.6h-1v-10.16h1zm0-20.32h-1v-20.32h1zm0-30.48h-1v-20.32h1zm0-30.48h-1V1060h1zm0-30.48h-1v-20.32h1zm0-30.48h-1v-20.32h1zm0-30.48h-1v-20.32h1zm0-30.48h-1v-20.32h1zm0-30.48h-1V907.6h1zm0-30.48h-1v-20.32h1zm0-30.48h-1v-20.32h1zm0-30.48h-1v-20.32h1zm0-30.48h-1v-20.32h1zm0-30.48h-1V755.2h1zm0-30.48h-1v-20.32h1zm0-30.48h-1v-20.32h1zm0-30.48h-1v-20.32h1zm0-30.48h-1v-20.32h1zm0-30.48h-1v-10.6h1zm0-32.2h-1v-18.6h1zm0-28.76h-1v-20.32h1zm0-30.48h-1v-20.32h1zm0-30.48h-1v-20.32h1zm0-30.48h-1V450.4h1zm0-47.8h-1v-3h1zm0-13.16h-1v-20.32h1zm0-30.48h-1v-20.32h1zm-.97-43.08l.96 2.34v10.26h-1v-10.06l-.74-1.77-1.86-.77.38-.93z" fill="#333"/><path d="M384.16 336.23h-3.5v-1h3.5zM387.56 1162.1h-1v-.5h1z" fill="#333"/><use xlink:href="#f" transform="matrix(1,0,0,1,322.18236474868553,590.9333333333333) translate(0 14.4)"/><use xlink:href="#g" transform="matrix(1,0,0,1,322.18236474868553,590.9333333333333) translate(57.900000000000006 14.4)"/><use xlink:href="#h" transform="matrix(1,0,0,1,322.18236474868553,590.9333333333333) translate(78.85000000000001 14.4)"/><use xlink:href="#i" transform="matrix(1,0,0,1,368.10736474868554,422.9333333333333) translate(0 14.4)"/><path d="M387.06 495.17c0-2.22 1.8-4 4-4h271.82M387.06 495.15v.52" stroke="#333" fill="none"/><path d="M677.64 491.16l-14.26 4.64v-9.28z" stroke="#333" fill="#333"/><use xlink:href="#j" transform="matrix(1,0,0,1,418.940860210377,468.49356637952076) translate(0.0049999999999954525 12.444444444444446)"/><use xlink:href="#k" transform="matrix(1,0,0,1,418.940860210377,468.49356637952076) translate(41.44327160493827 12.444444444444446)"/><use xlink:href="#l" transform="matrix(1,0,0,1,418.940860210377,468.49356637952076) translate(75.96796296296296 12.444444444444446)"/><use xlink:href="#m" transform="matrix(1,0,0,1,418.940860210377,468.49356637952076) translate(109.62845679012345 12.444444444444446)"/><use xlink:href="#n" transform="matrix(1,0,0,1,418.940860210377,468.49356637952076) translate(170.81364197530866 12.444444444444446)"/><use xlink:href="#o" transform="matrix(1,0,0,1,418.940860210377,468.49356637952076) translate(185.4185802469136 12.444444444444446)"/><path d="M460 117.16c0-4.42 3.58-8 8-8h837.7c4.43 0 8 3.58 8 8V120c0 4.42-3.57 8-8 8H468c-4.42 0-8-3.58-8-8z" stroke="#000" stroke-opacity="0" stroke-width="2" fill="#fff" fill-opacity="0"/><use xlink:href="#p" transform="matrix(1,0,0,1,464,113.1552239567824) translate(251.82599794238683 14.917037037037037)"/><use xlink:href="#q" transform="matrix(1,0,0,1,464,113.1552239567824) translate(328.2225 14.917037037037037)"/><use xlink:href="#r" transform="matrix(1,0,0,1,464,113.1552239567824) translate(385.11622427983536 14.917037037037037)"/><use xlink:href="#s" transform="matrix(1,0,0,1,464,113.1552239567824) translate(414.7315534979424 14.917037037037037)"/><use xlink:href="#t" transform="matrix(1,0,0,1,464,113.1552239567824) translate(423.22949588477366 14.917037037037037)"/><use xlink:href="#u" transform="matrix(1,0,0,1,464,113.1552239567824) translate(508.20891975308643 14.917037037037037)"/><use xlink:href="#v" transform="matrix(1,0,0,1,464,113.1552239567824) translate(541.3084053497943 14.917037037037037)"/><use xlink:href="#w" transform="matrix(1,0,0,1,464,113.1552239567824) translate(566.8022325102881 14.917037037037037)"/><path d="M423.65 632.45h183.02v20l-10 10H423.65z" fill="#fff"/><path d="M606.67 632.45v20l-10 10H423.65" stroke="#333" fill="none"/><path d="M423.65 632.45H1260V900H423.65zM423.65 827.34h20m15 0h20m15 0h20m15 0h20m15 0h20m15 0h20m15 0h20m15 0h20m15 0h20m15 0h20m15 0h20m15 0h20m15 0h20m15 0h20m15 0h20m15 0h20m15 0h20m15 0h20m15 0h20m15 0h20m15 0h20m15 0h20m15 0h20m15 0h20" stroke="#333" fill="none"/><use xlink:href="#x" transform="matrix(1,0,0,1,431.6496896262573,632.4540804232712) translate(0 18.6)"/><use xlink:href="#y" transform="matrix(1,0,0,1,431.6496896262573,632.4540804232712) translate(13.95 18.6)"/><use xlink:href="#z" transform="matrix(1,0,0,1,431.6496896262573,632.4540804232712) translate(53.900000000000006 18.6)"/><use xlink:href="#A" transform="matrix(1,0,0,1,431.6496896262573,632.4540804232712) translate(87.85000000000001 18.6)"/><use xlink:href="#B" transform="matrix(1,0,0,1,431.6496896262573,632.4540804232712) translate(105.80000000000001 18.6)"/><use xlink:href="#C" transform="matrix(1,0,0,1,435.6496896262573,835.3395395889052) translate(0 18.6)"/><path d="M720.76 653.47h301.88" stroke="#333" fill="none"/><path d="M720.77 653.97h-.5v-1h.5z" fill="#333"/><path d="M1037.4 653.47l-14.26 4.63v-9.27z" stroke="#333" fill="#333"/><use xlink:href="#D" transform="matrix(1,0,0,1,808.7410761244535,627.8666666666668) translate(0 14.4)"/><use xlink:href="#E" transform="matrix(1,0,0,1,808.7410761244535,627.8666666666668) translate(47 14.4)"/><use xlink:href="#F" transform="matrix(1,0,0,1,808.7410761244535,627.8666666666668) translate(89.9 14.4)"/><path d="M736.64 760.13h4.55l.04-.02.02-.03.02-.05.05-.02h1.97m3.96 0h3.95m3.96 0h3.95m3.96 0H767m3.97 0h3.95m3.95 0h3.95m3.95 0h3.96m3.95 0h3.95m3.95 0h3.95m3.95 0h3.96m3.95 0h3.94m3.95 0h3.94m3.96 0h3.95m3.95 0h3.95m3.95 0h3.95m3.96 0h3.96m3.95 0h3.96m3.95 0h3.97m3.95 0h3.95m3.95 0h3.95m3.95 0h3.96m3.95 0h3.95m3.95 0h3.95m3.96 0h3.95m3.94 0H933m3.94 0h3.95m3.95 0h3.95m3.95 0h3.95m3.95 0h3.96m3.96 0h3.95m3.96 0h3.95m3.96 0h3.96m3.95 0h3.95m3.95 0h3.95m3.96 0h3.95m3.95 0h1.97l.05.02.02.05.02.04.05.03h1.7m3.4 0h3.4m3.4 0h3.4m3.42 0h1.7" stroke="#333" fill="none"/><path d="M721.88 760.13l14.26-4.63v9.27z" stroke="#333" fill="#333"/><path d="M1039.02 760.63h-.5v-1h.5z" fill="#333"/><g><use xlink:href="#D" transform="matrix(1,0,0,1,818.032839143669,734.4) translate(0 14.4)"/><use xlink:href="#G" transform="matrix(1,0,0,1,818.032839143669,734.4) translate(47 14.4)"/></g><path d="M420.53 800.13h1.62m3.23 0h1.6l.06-.02.02-.03.02-.05.04-.02h2.04m4.08 0h4.07m4.1 0h4.06m4.08 0h4.08m4.07 0h4.07m4.07 0h4.08m4.07 0h4.07m4.08 0h4.07m4.08 0h4.07m4.08 0h4.07m4.08 0h4.08m4.07 0h4.08m4.07 0h4.08m4.07 0h2.04l.04.02.02.05.02.04.05.03h1.95m3.9 0h3.9m3.9 0h3.92m3.9 0h3.9m3.92 0h3.9m3.9 0h3.9m3.92 0h3.9m3.9 0h3.9m3.92 0h3.9m3.9 0h3.9m3.92 0h3.9m3.9 0h3.9m3.92 0h3.9m3.9 0h3.92m3.9 0h3.9m3.9 0h3.92m3.9 0h1.95l.04-.02.02-.03-.02-.05-.05-.02h-2.36m-4.72 0h-4.72m-4.7 0h-2.37l-.05.02-.02.05.02.04.05.03h1.97m3.94 0h3.95m3.93 0h3.94m3.95 0h3.94m3.94 0h3.95m3.94 0h1.96" stroke="#333" fill="none"/><path d="M405.77 800.13l14.26-4.63v9.27z" stroke="#333" fill="#333"/><path d="M679.26 800.63h-.5v-1h.5z" fill="#333"/><g><use xlink:href="#H" transform="matrix(1,0,0,1,446.8262982561805,774.5333333333333) translate(0 14.4)"/><use xlink:href="#I" transform="matrix(1,0,0,1,446.8262982561805,774.5333333333333) translate(104.9 14.4)"/></g><path d="M420.53 860.4h2.02m4.04 0h4.02m4.04 0h4.03m4.02 0h4.04m4.03 0h4.03m4.03 0h4.04m4.03 0h4.04m4.03 0h4.04m4.03 0h4.04m4.04 0h4.04m4.03 0h4.05m4.03 0h4.04m4.03 0h4.04m4.02 0h4.04m4.03 0h4.03m4.03 0h4.04m4.03 0h4.03m4.04 0h4.03m4.04 0h4.03m4.04 0h4.03m4.04 0h4.04m4.04 0H592m4.05 0h4.03m4.04 0h4.03m4.04 0h4.02m4.04 0h4.03m4.03 0h4.03m4.04 0h4.03m4.04 0h4.03m4.03 0h4.04m4.03 0h4.04m4.03 0h4.04m4.04 0h2.02" stroke="#333" fill="none"/><path d="M405.77 860.4l14.26-4.64v9.28z" stroke="#333" fill="#333"/><path d="M679.26 860.9h-.5v-1h.5z" fill="#333"/><g><use xlink:href="#J" transform="matrix(1,0,0,1,493.7802674279022,864.4) translate(0 14.4)"/><use xlink:href="#z" transform="matrix(1,0,0,1,493.7802674279022,864.4) translate(56.900000000000006 14.4)"/><use xlink:href="#K" transform="matrix(1,0,0,1,493.7802674279022,864.4) translate(90.85000000000001 14.4)"/></g><path d="M720.76 502.27h27.5c6.63 0 12 5.37 12 12v73.86c0 6.63-5.37 12-12 12h-11.62" stroke="#333" fill="none"/><path d="M720.77 502.77h-.5v-1h.5z" fill="#333"/><path d="M721.88 600.13l14.26-4.63v9.27z" stroke="#333" fill="#333"/><g><use xlink:href="#L" transform="matrix(1,0,0,1,768.2608452295066,540.4) translate(0 14.4)"/><use xlink:href="#y" transform="matrix(1,0,0,1,768.2608452295066,540.4) translate(55.95 14.4)"/><use xlink:href="#M" transform="matrix(1,0,0,1,768.2608452295066,540.4) translate(95.9 14.4)"/></g><path d="M1060.02 640h48c6.63 0 12 5.37 12 12v82.8c0 6.63-5.37 12-12 12h-11.6M1060.03 640h-.5" stroke="#333" fill="none"/><path d="M1081.64 746.8l14.27-4.64v9.28z" stroke="#333" fill="#333"/><g><use xlink:href="#N" transform="matrix(1,0,0,1,1128.0213070194004,692.0000000000001) translate(0 14.4)"/><use xlink:href="#y" transform="matrix(1,0,0,1,1128.0213070194004,692.0000000000001) translate(48.900000000000006 14.4)"/><use xlink:href="#M" transform="matrix(1,0,0,1,1128.0213070194004,692.0000000000001) translate(88.85000000000001 14.4)"/></g><path d="M363.65 480h40v440h-40z" stroke="#333" fill="#d2d3d5"/><defs><path fill="#333" d="M249-183c0 48-29 72-75 77L221 0h-36l-43-103H65L45 0H11l48-248c83 2 190-17 190 65zm-34 3c0-55-74-39-127-41l-18 92c63-1 145 13 145-51" id="O"/><path fill="#333" d="M111-194c62-3 86 47 72 106H45c-7 38 6 69 45 68 27-1 43-14 53-32l24 11C152-15 129 4 87 4 38 3 12-23 12-71c0-70 32-119 99-123zm44 81c14-66-71-72-95-28-4 8-8 17-11 28h106" id="P"/><path fill="#333" d="M103-194c29 0 47 14 56 36 2-11 5-23 8-32h30L160-5C157 61 82 97 21 62 9 55 4 45 1 30l28-7c7 42 83 31 92-3 4-16 9-38 13-55-13 20-29 36-62 36-40 0-60-25-60-64 0-71 23-131 91-131zm4 24c-53 0-58 54-61 104-2 27 10 44 36 44 49 0 65-50 67-102 1-29-15-46-42-46" id="Q"/><path fill="#333" d="M50-231l6-30h32l-6 30H50zM6 0l37-190h31L37 0H6" id="R"/><path fill="#333" d="M55-144c13 50 104 24 104 88C159 21 15 23 1-39l26-10c6 40 102 42 102-4-13-50-104-23-104-87 0-71 143-71 148-8l-29 4c-5-35-85-37-89 0" id="S"/><path fill="#333" d="M51-54c-9 22 5 41 31 30L79-1C43 14 10-4 19-52l22-115H19l5-23h22l19-43h21l-9 43h35l-4 23H73" id="T"/><path fill="#333" d="M66-151c12-25 30-51 66-40l-6 26C45-176 58-65 38 0H6l36-190h30" id="U"/><path fill="#333" d="M165-48c-4 18 1 34 23 27l-3 20c-29 8-62 0-52-35h-2C116-14 99 4 63 4 30 4 8-16 8-49c0-68 71-67 138-67 10-26 0-56-31-54-26 1-42 9-47 31l-32-5c8-67 160-71 144 15-5 28-9 54-15 81zM42-50c3 52 80 24 89-6 7-12 7-24 11-38-47 1-103-4-100 44" id="V"/><path fill="#333" d="M30-147c31-64 166-65 159 27C183-49 158 1 86 4 9 8 1-88 30-147zM88-20c53 0 68-48 68-100 0-31-11-51-44-50-52 1-68 46-68 97 0 32 13 53 44 53" id="W"/><path fill="#333" d="M67-158c22-48 132-52 116 29L158 0h-32l25-140c3-38-53-32-70-12C52-117 51-52 38 0H6l36-190h30" id="X"/><g id="a"><use transform="matrix(0.04320987654320988,0,0,0.04320987654320988,0,0)" xlink:href="#O"/><use transform="matrix(0.04320987654320988,0,0,0.04320987654320988,11.19135802469136,0)" xlink:href="#P"/><use transform="matrix(0.04320987654320988,0,0,0.04320987654320988,19.833333333333336,0)" xlink:href="#Q"/><use transform="matrix(0.04320987654320988,0,0,0.04320987654320988,28.47530864197531,0)" xlink:href="#R"/><use transform="matrix(0.04320987654320988,0,0,0.04320987654320988,31.888888888888893,0)" xlink:href="#S"/><use transform="matrix(0.04320987654320988,0,0,0.04320987654320988,39.66666666666667,0)" xlink:href="#T"/><use transform="matrix(0.04320987654320988,0,0,0.04320987654320988,43.98765432098766,0)" xlink:href="#P"/><use transform="matrix(0.04320987654320988,0,0,0.04320987654320988,52.62962962962963,0)" xlink:href="#U"/><use transform="matrix(0.04320987654320988,0,0,0.04320987654320988,57.77160493827161,0)" xlink:href="#V"/><use transform="matrix(0.04320987654320988,0,0,0.04320987654320988,66.41358024691358,0)" xlink:href="#T"/><use transform="matrix(0.04320987654320988,0,0,0.04320987654320988,70.73456790123457,0)" xlink:href="#R"/><use transform="matrix(0.04320987654320988,0,0,0.04320987654320988,74.14814814814815,0)" xlink:href="#W"/><use transform="matrix(0.04320987654320988,0,0,0.04320987654320988,82.79012345679013,0)" xlink:href="#X"/><path fill="#333" d="M-.78 1.08h101.63v1.14H-.78z"/></g><path fill="#333" d="M238-179c0 84-86 86-175 82L45 0H11l48-248c82 0 179-12 179 69zm-34 1c0-53-64-42-116-43l-19 98c63 0 135 9 135-55" id="Y"/><g id="b"><use transform="matrix(0.04320987654320988,0,0,0.04320987654320988,0,0)" xlink:href="#Y"/><use transform="matrix(0.04320987654320988,0,0,0.04320987654320988,10.370370370370372,0)" xlink:href="#V"/><use transform="matrix(0.04320987654320988,0,0,0.04320987654320988,19.01234567901235,0)" xlink:href="#Q"/><use transform="matrix(0.04320987654320988,0,0,0.04320987654320988,27.654320987654323,0)" xlink:href="#P"/><path fill="#333" d="M-.78 1.08h37.85v1.14H-.78z"/></g><path fill="#333" d="M248-139C247-14 144 9 11 0l48-248c105-6 190 8 189 109zm-34 0c1-70-52-87-126-82L50-27c98 7 163-21 164-112" id="Z"/><g id="c"><use transform="matrix(0.04320987654320988,0,0,0.04320987654320988,0,0)" xlink:href="#Z"/><use transform="matrix(0.04320987654320988,0,0,0.04320987654320988,11.19135802469136,0)" xlink:href="#V"/><use transform="matrix(0.04320987654320988,0,0,0.04320987654320988,19.833333333333336,0)" xlink:href="#T"/><use transform="matrix(0.04320987654320988,0,0,0.04320987654320988,24.154320987654323,0)" xlink:href="#V"/><path fill="#333" d="M-.78 1.08H37.9v1.14H-.8z"/></g><path fill="#333" d="M219-77C219 17 104-2 11 0l48-248c73 2 169-15 169 57 0 38-24 54-60 60 29 5 51 21 51 54zm-26-111c0-44-62-31-105-33l-16 79c55 0 121 9 121-46zm-7 110c-1-49-69-36-119-38L50-27c61-1 137 12 136-51" id="aa"/><g id="d"><use transform="matrix(0.04320987654320988,0,0,0.04320987654320988,0,0)" xlink:href="#aa"/><use transform="matrix(0.04320987654320988,0,0,0.04320987654320988,10.370370370370372,0)" xlink:href="#V"/><use transform="matrix(0.04320987654320988,0,0,0.04320987654320988,19.01234567901235,0)" xlink:href="#S"/><use transform="matrix(0.04320987654320988,0,0,0.04320987654320988,26.790123456790127,0)" xlink:href="#P"/><path fill="#333" d="M-.78 1.08h37v1.14h-37z"/></g><path fill="#333" d="M187 0l-14-72H61L19 0h-37l149-248h38L221 0h-34zm-19-99l-22-123L76-99h92" id="ab"/><path fill="#333" d="M44-68c0 29 11 47 38 47 30 0 42-19 51-41l28 9C148-21 126 4 82 4 31 4 10-29 12-85c3-77 74-140 146-93 12 8 15 23 18 40l-31 5c-1-22-13-36-36-36-52 0-65 49-65 101" id="ac"/><g id="e"><use transform="matrix(0.04320987654320988,0,0,0.04320987654320988,0,0)" xlink:href="#ab"/><use transform="matrix(0.04320987654320988,0,0,0.04320987654320988,10.370370370370372,0)" xlink:href="#ac"/><use transform="matrix(0.04320987654320988,0,0,0.04320987654320988,18.148148148148152,0)" xlink:href="#T"/><use transform="matrix(0.04320987654320988,0,0,0.04320987654320988,22.46913580246914,0)" xlink:href="#W"/><use transform="matrix(0.04320987654320988,0,0,0.04320987654320988,31.111111111111114,0)" xlink:href="#U"/></g><path fill="#333" d="M140-251c81 0 123 46 123 126C263-46 219 4 140 4 59 4 17-45 17-125s42-126 123-126zm0 227c63 0 89-41 89-101s-29-99-89-99c-61 0-89 39-89 99S79-25 140-24" id="ad"/><path fill="#333" d="M206 0h-36l-40-164L89 0H53L-1-190h32L70-26l43-164h34l41 164 42-164h31" id="ae"/><path fill="#333" d="M117-194c89-4 53 116 60 194h-32v-121c0-31-8-49-39-48C34-167 62-67 57 0H25l-1-190h30c1 10-1 24 2 32 11-22 29-35 61-36" id="af"/><path fill="#333" d="M100-194c63 0 86 42 84 106H49c0 40 14 67 53 68 26 1 43-12 49-29l28 8c-11 28-37 45-77 45C44 4 14-33 15-96c1-61 26-98 85-98zm52 81c6-60-76-77-97-28-3 7-6 17-6 28h103" id="ag"/><path fill="#333" d="M114-163C36-179 61-72 57 0H25l-1-190h30c1 12-1 29 2 39 6-27 23-49 58-41v29" id="ah"/><g id="f"><use transform="matrix(0.05,0,0,0.05,0,0)" xlink:href="#ad"/><use transform="matrix(0.05,0,0,0.05,14,0)" xlink:href="#ae"/><use transform="matrix(0.05,0,0,0.05,26.950000000000003,0)" xlink:href="#af"/><use transform="matrix(0.05,0,0,0.05,36.95,0)" xlink:href="#ag"/><use transform="matrix(0.05,0,0,0.05,46.95,0)" xlink:href="#ah"/></g><path fill="#333" d="M100-194c62-1 85 37 85 99 1 63-27 99-86 99S16-35 15-95c0-66 28-99 85-99zM99-20c44 1 53-31 53-75 0-43-8-75-51-75s-53 32-53 75 10 74 51 75" id="ai"/><g id="g"><use transform="matrix(0.05,0,0,0.05,0,0)" xlink:href="#ai"/><use transform="matrix(0.05,0,0,0.05,10,0)" xlink:href="#ah"/></g><path fill="#333" d="M30-248c87 1 191-15 191 75 0 78-77 80-158 76V0H30v-248zm33 125c57 0 124 11 124-50 0-59-68-47-124-48v98" id="aj"/><path fill="#333" d="M24 0v-261h32V0H24" id="ak"/><path fill="#333" d="M141-36C126-15 110 5 73 4 37 3 15-17 15-53c-1-64 63-63 125-63 3-35-9-54-41-54-24 1-41 7-42 31l-33-3c5-37 33-52 76-52 45 0 72 20 72 64v82c-1 20 7 32 28 27v20c-31 9-61-2-59-35zM48-53c0 20 12 33 32 33 41-3 63-29 60-74-43 2-92-5-92 41" id="al"/><path fill="#333" d="M179-190L93 31C79 59 56 82 12 73V49c39 6 53-20 64-50L1-190h34L92-34l54-156h33" id="am"/><g id="h"><use transform="matrix(0.05,0,0,0.05,0,0)" xlink:href="#aj"/><use transform="matrix(0.05,0,0,0.05,12,0)" xlink:href="#ak"/><use transform="matrix(0.05,0,0,0.05,15.949999999999998,0)" xlink:href="#al"/><use transform="matrix(0.05,0,0,0.05,25.950000000000003,0)" xlink:href="#am"/><use transform="matrix(0.05,0,0,0.05,34.95,0)" xlink:href="#ag"/><use transform="matrix(0.05,0,0,0.05,44.95,0)" xlink:href="#ah"/></g><path fill="#333" d="M232-93c-1 65-40 97-104 97C67 4 28-28 28-90v-158h33c8 89-33 224 67 224 102 0 64-133 71-224h33v155" id="an"/><path fill="#333" d="M135-143c-3-34-86-38-87 0 15 53 115 12 119 90S17 21 10-45l28-5c4 36 97 45 98 0-10-56-113-15-118-90-4-57 82-63 122-42 12 7 21 19 24 35" id="ao"/><g id="i"><use transform="matrix(0.05,0,0,0.05,0,0)" xlink:href="#an"/><use transform="matrix(0.05,0,0,0.05,12.950000000000001,0)" xlink:href="#ao"/><use transform="matrix(0.05,0,0,0.05,21.950000000000003,0)" xlink:href="#ag"/><use transform="matrix(0.05,0,0,0.05,31.950000000000003,0)" xlink:href="#ah"/></g><path fill="#333" d="M11 0l48-248h184l-5 28H87l-15 79h140l-5 27H67L50-27h158l-5 27H11" id="ap"/><g id="j"><use transform="matrix(0.04320987654320988,0,0,0.04320987654320988,0,0)" xlink:href="#ap"/><use transform="matrix(0.04320987654320988,0,0,0.04320987654320988,10.370370370370372,0)" xlink:href="#X"/><use transform="matrix(0.04320987654320988,0,0,0.04320987654320988,19.01234567901235,0)" xlink:href="#T"/><use transform="matrix(0.04320987654320988,0,0,0.04320987654320988,23.333333333333336,0)" xlink:href="#P"/><use transform="matrix(0.04320987654320988,0,0,0.04320987654320988,31.97530864197531,0)" xlink:href="#U"/></g><path fill="#333" d="M67 3c-93-2-31-127-26-193h32L48-50c-3 39 53 32 70 12 30-34 30-101 43-152h32L157 0h-30c1-10 6-24 4-33-14 20-29 37-64 36" id="aq"/><g id="k"><use transform="matrix(0.04320987654320988,0,0,0.04320987654320988,0,0)" xlink:href="#aq"/><use transform="matrix(0.04320987654320988,0,0,0.04320987654320988,8.641975308641976,0)" xlink:href="#S"/><use transform="matrix(0.04320987654320988,0,0,0.04320987654320988,16.419753086419753,0)" xlink:href="#P"/><use transform="matrix(0.04320987654320988,0,0,0.04320987654320988,25.061728395061728,0)" xlink:href="#U"/></g><path fill="#333" d="M76-167L44 0H12l33-167H18l4-23h27c3-47 25-81 82-69l-4 24c-35-8-44 15-46 45h37l-5 23H76" id="ar"/><g id="l"><use transform="matrix(0.04320987654320988,0,0,0.04320987654320988,0,0)" xlink:href="#R"/><use transform="matrix(0.04320987654320988,0,0,0.04320987654320988,3.4135802469135808,0)" xlink:href="#X"/><use transform="matrix(0.04320987654320988,0,0,0.04320987654320988,12.055555555555557,0)" xlink:href="#ar"/><use transform="matrix(0.04320987654320988,0,0,0.04320987654320988,16.376543209876544,0)" xlink:href="#W"/></g><path fill="#333" d="M17-49c1-102 45-165 103-212h30C92-210 49-145 49-46 49 4 63 43 85 75H54C30 43 18 2 17-49" id="as"/><g id="m"><use transform="matrix(0.04320987654320988,0,0,0.04320987654320988,0,0)" xlink:href="#as"/><use transform="matrix(0.04320987654320988,0,0,0.04320987654320988,5.1419753086419755,0)" xlink:href="#U"/><use transform="matrix(0.04320987654320988,0,0,0.04320987654320988,10.283950617283951,0)" xlink:href="#P"/><use transform="matrix(0.04320987654320988,0,0,0.04320987654320988,18.925925925925927,0)" xlink:href="#Q"/><use transform="matrix(0.04320987654320988,0,0,0.04320987654320988,27.567901234567906,0)" xlink:href="#R"/><use transform="matrix(0.04320987654320988,0,0,0.04320987654320988,30.981481481481488,0)" xlink:href="#S"/><use transform="matrix(0.04320987654320988,0,0,0.04320987654320988,38.75925925925927,0)" xlink:href="#T"/><use transform="matrix(0.04320987654320988,0,0,0.04320987654320988,43.080246913580254,0)" xlink:href="#P"/><use transform="matrix(0.04320987654320988,0,0,0.04320987654320988,51.72222222222223,0)" xlink:href="#U"/></g><path fill="#333" d="M98-137C97-35 54 29-4 75h-31C23 23 67-41 67-140c0-50-15-89-37-121h31c24 32 36 73 37 124" id="at"/><g id="n"><use transform="matrix(0.04320987654320988,0,0,0.04320987654320988,0,0)" xlink:href="#as"/><use transform="matrix(0.04320987654320988,0,0,0.04320987654320988,5.1419753086419755,0)" xlink:href="#at"/></g><path fill="#333" d="M58-36C53-4 47 27 28 46H7C19 32 27 18 32 0H17l7-36h34zM47-154l7-36h34l-7 36H47" id="au"/><g id="o"><use transform="matrix(0.04320987654320988,0,0,0.04320987654320988,0,0)" xlink:href="#au"/><use transform="matrix(0.04320987654320988,0,0,0.04320987654320988,4.320987654320988,0)" xlink:href="#at"/></g><path fill="#b2b2b2" d="M26 75v-336h71v23H56V52h41v23H26" id="av"/><path fill="#b2b2b2" d="M240 0l2-218c-23 76-54 145-80 218h-23L58-218 59 0H30v-248h44l77 211c21-75 51-140 76-211h43V0h-30" id="aw"/><path fill="#b2b2b2" d="M141-36C126-15 110 5 73 4 37 3 15-17 15-53c-1-64 63-63 125-63 3-35-9-54-41-54-24 1-41 7-42 31l-33-3c5-37 33-52 76-52 45 0 72 20 72 64v82c-1 20 7 32 28 27v20c-31 9-61-2-59-35zM48-53c0 20 12 33 32 33 41-3 63-29 60-74-43 2-92-5-92 41" id="ax"/><path fill="#b2b2b2" d="M106-169C34-169 62-67 57 0H25v-261h32l-1 103c12-21 28-36 61-36 89 0 53 116 60 194h-32v-121c2-32-8-49-39-48" id="ay"/><path fill="#b2b2b2" d="M210-169c-67 3-38 105-44 169h-31v-121c0-29-5-50-35-48C34-165 62-65 56 0H25l-1-190h30c1 10-1 24 2 32 10-44 99-50 107 0 11-21 27-35 58-36 85-2 47 119 55 194h-31v-121c0-29-5-49-35-48" id="az"/><path fill="#b2b2b2" d="M100-194c62-1 85 37 85 99 1 63-27 99-86 99S16-35 15-95c0-66 28-99 85-99zM99-20c44 1 53-31 53-75 0-43-8-75-51-75s-53 32-53 75 10 74 51 75" id="aA"/><path fill="#b2b2b2" d="M84 4C-5 8 30-112 23-190h32v120c0 31 7 50 39 49 72-2 45-101 50-169h31l1 190h-30c-1-10 1-25-2-33-11 22-28 36-60 37" id="aB"/><path fill="#b2b2b2" d="M85-194c31 0 48 13 60 33l-1-100h32l1 261h-30c-2-10 0-23-3-31C134-8 116 4 85 4 32 4 16-35 15-94c0-66 23-100 70-100zm9 24c-40 0-46 34-46 75 0 40 6 74 45 74 42 0 51-32 51-76 0-42-9-74-50-73" id="aC"/><g id="p"><use transform="matrix(0.04248971193415638,0,0,0.04248971193415638,0,0)" xlink:href="#av"/><use transform="matrix(0.04248971193415638,0,0,0.04248971193415638,4.248971193415637,0)" xlink:href="#aw"/><use transform="matrix(0.04248971193415638,0,0,0.04248971193415638,16.953395061728394,0)" xlink:href="#ax"/><use transform="matrix(0.04248971193415638,0,0,0.04248971193415638,25.45133744855967,0)" xlink:href="#ay"/><use transform="matrix(0.04248971193415638,0,0,0.04248971193415638,33.949279835390946,0)" xlink:href="#az"/><use transform="matrix(0.04248971193415638,0,0,0.04248971193415638,46.6537037037037,0)" xlink:href="#aA"/><use transform="matrix(0.04248971193415638,0,0,0.04248971193415638,55.151646090534975,0)" xlink:href="#aB"/><use transform="matrix(0.04248971193415638,0,0,0.04248971193415638,63.649588477366265,0)" xlink:href="#aC"/></g><path fill="#b2b2b2" d="M205 0l-28-72H64L36 0H1l101-248h38L239 0h-34zm-38-99l-47-123c-12 45-31 82-46 123h93" id="aD"/><path fill="#b2b2b2" d="M135-143c-3-34-86-38-87 0 15 53 115 12 119 90S17 21 10-45l28-5c4 36 97 45 98 0-10-56-113-15-118-90-4-57 82-63 122-42 12 7 21 19 24 35" id="aE"/><path fill="#b2b2b2" d="M114-163C36-179 61-72 57 0H25l-1-190h30c1 12-1 29 2 39 6-27 23-49 58-41v29" id="aF"/><path fill="#b2b2b2" d="M101-234c-31-9-42 10-38 44h38v23H63V0H32v-167H5v-23h27c-7-52 17-82 69-68v24" id="aG"/><g id="q"><use transform="matrix(0.04248971193415638,0,0,0.04248971193415638,0,0)" xlink:href="#aD"/><use transform="matrix(0.04248971193415638,0,0,0.04248971193415638,10.19753086419753,0)" xlink:href="#aE"/><use transform="matrix(0.04248971193415638,0,0,0.04248971193415638,17.845679012345677,0)" xlink:href="#ay"/><use transform="matrix(0.04248971193415638,0,0,0.04248971193415638,26.343621399176953,0)" xlink:href="#aF"/><use transform="matrix(0.04248971193415638,0,0,0.04248971193415638,31.399897119341563,0)" xlink:href="#ax"/><use transform="matrix(0.04248971193415638,0,0,0.04248971193415638,39.897839506172836,0)" xlink:href="#aG"/></g><path fill="#b2b2b2" d="M16-82v-28h88v28H16" id="aH"/><path fill="#b2b2b2" d="M33 0v-248h34V0H33" id="aI"/><path fill="#b2b2b2" d="M30-248c118-7 216 8 213 122C240-48 200 0 122 0H30v-248zM63-27c89 8 146-16 146-99s-60-101-146-95v194" id="aJ"/><g id="r"><use transform="matrix(0.04248971193415638,0,0,0.04248971193415638,0,0)" xlink:href="#aH"/><use transform="matrix(0.04248971193415638,0,0,0.04248971193415638,5.056275720164609,0)" xlink:href="#aH"/><use transform="matrix(0.04248971193415638,0,0,0.04248971193415638,10.112551440329218,0)" xlink:href="#aI"/><use transform="matrix(0.04248971193415638,0,0,0.04248971193415638,14.361522633744855,0)" xlink:href="#aJ"/></g><path fill="#b2b2b2" d="M33-154v-36h34v36H33zM33 0v-36h34V0H33" id="aK"/><use transform="matrix(0.04248971193415638,0,0,0.04248971193415638,0,0)" xlink:href="#aK" id="s"/><path fill="#b2b2b2" d="M101-251c82-7 93 87 43 132L82-64C71-53 59-42 53-27h129V0H18c2-99 128-94 128-182 0-28-16-43-45-43s-46 15-49 41l-32-3c6-41 34-60 81-64" id="aL"/><path fill="#b2b2b2" d="M101-251c68 0 85 55 85 127S166 4 100 4C33 4 14-52 14-124c0-73 17-127 87-127zm-1 229c47 0 54-49 54-102s-4-102-53-102c-51 0-55 48-55 102 0 53 5 102 54 102" id="aM"/><path fill="#b2b2b2" d="M27 0v-27h64v-190l-56 39v-29l58-41h29v221h61V0H27" id="aN"/><path fill="#b2b2b2" d="M134-131c28 9 52 24 51 62-1 50-34 73-85 73S17-19 16-69c0-36 21-54 49-61-75-25-45-126 34-121 46 3 78 18 79 63 0 33-17 51-44 57zm-34-11c31 1 46-15 46-44 0-28-17-43-47-42-29 0-46 13-45 42 1 28 16 44 46 44zm1 122c35 0 51-18 51-52 0-30-18-46-53-46-33 0-51 17-51 47 0 34 19 51 53 51" id="aO"/><path fill="#b2b2b2" d="M54-142c48-35 137-8 131 61C196 18 31 33 14-55l32-4c7 23 22 37 52 37 35-1 51-22 54-58 4-55-73-65-99-34H22l8-134h141v27H59" id="aP"/><path fill="#b2b2b2" d="M3 75V52h41v-290H3v-23h71V75H3" id="aQ"/><g id="t"><use transform="matrix(0.04248971193415638,0,0,0.04248971193415638,0,0)" xlink:href="#aL"/><use transform="matrix(0.04248971193415638,0,0,0.04248971193415638,8.497942386831275,0)" xlink:href="#aM"/><use transform="matrix(0.04248971193415638,0,0,0.04248971193415638,16.99588477366255,0)" xlink:href="#aN"/><use transform="matrix(0.04248971193415638,0,0,0.04248971193415638,25.493827160493822,0)" xlink:href="#aO"/><use transform="matrix(0.04248971193415638,0,0,0.04248971193415638,33.9917695473251,0)" xlink:href="#aM"/><use transform="matrix(0.04248971193415638,0,0,0.04248971193415638,42.489711934156375,0)" xlink:href="#aL"/><use transform="matrix(0.04248971193415638,0,0,0.04248971193415638,50.98765432098765,0)" xlink:href="#aP"/><use transform="matrix(0.04248971193415638,0,0,0.04248971193415638,59.48559670781893,0)" xlink:href="#aM"/><use transform="matrix(0.04248971193415638,0,0,0.04248971193415638,67.9835390946502,0)" xlink:href="#aQ"/></g><path fill="#b2b2b2" d="M179-190L93 31C79 59 56 82 12 73V49c39 6 53-20 64-50L1-190h34L92-34l54-156h33" id="aR"/><g id="u"><use transform="matrix(0.04248971193415638,0,0,0.04248971193415638,0,0)" xlink:href="#aw"/><use transform="matrix(0.04248971193415638,0,0,0.04248971193415638,12.704423868312757,0)" xlink:href="#ax"/><use transform="matrix(0.04248971193415638,0,0,0.04248971193415638,21.20236625514403,0)" xlink:href="#aR"/></g><path fill="#b2b2b2" d="M68-38c1 34 0 65-14 84H32c9-13 17-26 17-46H33v-38h35" id="aS"/><g id="v"><use transform="matrix(0.04248971193415638,0,0,0.04248971193415638,0,0)" xlink:href="#aN"/><use transform="matrix(0.04248971193415638,0,0,0.04248971193415638,8.497942386831275,0)" xlink:href="#aM"/><use transform="matrix(0.04248971193415638,0,0,0.04248971193415638,16.99588477366255,0)" xlink:href="#aS"/></g><g id="w"><use transform="matrix(0.04248971193415638,0,0,0.04248971193415638,0,0)" xlink:href="#aL"/><use transform="matrix(0.04248971193415638,0,0,0.04248971193415638,8.497942386831275,0)" xlink:href="#aM"/><use transform="matrix(0.04248971193415638,0,0,0.04248971193415638,16.99588477366255,0)" xlink:href="#aL"/><use transform="matrix(0.04248971193415638,0,0,0.04248971193415638,25.493827160493822,0)" xlink:href="#aM"/></g><path fill="#333" d="M24-231v-30h32v30H24zM24 0v-190h32V0H24" id="aT"/><path fill="#333" d="M101-234c-31-9-42 10-38 44h38v23H63V0H32v-167H5v-23h27c-7-52 17-82 69-68v24" id="aU"/><g id="x"><use transform="matrix(0.05,0,0,0.05,0,0)" xlink:href="#aT"/><use transform="matrix(0.05,0,0,0.05,3.95,0)" xlink:href="#aU"/></g><path fill="#333" d="M84 4C-5 8 30-112 23-190h32v120c0 31 7 50 39 49 72-2 45-101 50-169h31l1 190h-30c-1-10 1-25-2-33-11 22-28 36-60 37" id="aV"/><g id="y"><use transform="matrix(0.05,0,0,0.05,0,0)" xlink:href="#aV"/><use transform="matrix(0.05,0,0,0.05,10,0)" xlink:href="#ao"/><use transform="matrix(0.05,0,0,0.05,19,0)" xlink:href="#ag"/><use transform="matrix(0.05,0,0,0.05,29,0)" xlink:href="#ah"/></g><g id="z"><use transform="matrix(0.05,0,0,0.05,0,0)" xlink:href="#aT"/><use transform="matrix(0.05,0,0,0.05,3.95,0)" xlink:href="#af"/><use transform="matrix(0.05,0,0,0.05,13.949999999999998,0)" xlink:href="#aU"/><use transform="matrix(0.05,0,0,0.05,18.95,0)" xlink:href="#ai"/></g><g id="A"><use transform="matrix(0.05,0,0,0.05,0,0)" xlink:href="#aT"/><use transform="matrix(0.05,0,0,0.05,3.95,0)" xlink:href="#ao"/></g><path fill="#333" d="M108 0H70L1-190h34L89-25l56-165h34" id="aW"/><path fill="#333" d="M85-194c31 0 48 13 60 33l-1-100h32l1 261h-30c-2-10 0-23-3-31C134-8 116 4 85 4 32 4 16-35 15-94c0-66 23-100 70-100zm9 24c-40 0-46 34-46 75 0 40 6 74 45 74 42 0 51-32 51-76 0-42-9-74-50-73" id="aX"/><g id="B"><use transform="matrix(0.05,0,0,0.05,0,0)" xlink:href="#aW"/><use transform="matrix(0.05,0,0,0.05,9,0)" xlink:href="#al"/><use transform="matrix(0.05,0,0,0.05,19,0)" xlink:href="#ak"/><use transform="matrix(0.05,0,0,0.05,22.95,0)" xlink:href="#aT"/><use transform="matrix(0.05,0,0,0.05,26.899999999999995,0)" xlink:href="#aX"/></g><path fill="#333" d="M26 75v-336h71v23H56V52h41v23H26" id="aY"/><path fill="#333" d="M30 0v-248h187v28H63v79h144v27H63v87h162V0H30" id="aZ"/><path fill="#333" d="M3 75V52h41v-290H3v-23h71V75H3" id="ba"/><g id="C"><use transform="matrix(0.05,0,0,0.05,0,0)" xlink:href="#aY"/><use transform="matrix(0.05,0,0,0.05,5,0)" xlink:href="#aZ"/><use transform="matrix(0.05,0,0,0.05,17,0)" xlink:href="#ak"/><use transform="matrix(0.05,0,0,0.05,20.95,0)" xlink:href="#ao"/><use transform="matrix(0.05,0,0,0.05,29.950000000000003,0)" xlink:href="#ag"/><use transform="matrix(0.05,0,0,0.05,39.95,0)" xlink:href="#ba"/></g><path fill="#333" d="M185-189c-5-48-123-54-124 2 14 75 158 14 163 119 3 78-121 87-175 55-17-10-28-26-33-46l33-7c5 56 141 63 141-1 0-78-155-14-162-118-5-82 145-84 179-34 5 7 8 16 11 25" id="bb"/><g id="D"><use transform="matrix(0.05,0,0,0.05,0,0)" xlink:href="#bb"/><use transform="matrix(0.05,0,0,0.05,12,0)" xlink:href="#ag"/><use transform="matrix(0.05,0,0,0.05,22,0)" xlink:href="#af"/><use transform="matrix(0.05,0,0,0.05,32,0)" xlink:href="#aX"/></g><g id="E"><use transform="matrix(0.05,0,0,0.05,0,0)" xlink:href="#an"/><use transform="matrix(0.05,0,0,0.05,12.950000000000001,0)" xlink:href="#ao"/><use transform="matrix(0.05,0,0,0.05,21.950000000000003,0)" xlink:href="#ag"/><use transform="matrix(0.05,0,0,0.05,31.950000000000003,0)" xlink:href="#ah"/></g><path fill="#333" d="M59-47c-2 24 18 29 38 22v24C64 9 27 4 27-40v-127H5v-23h24l9-43h21v43h35v23H59v120" id="bc"/><g id="F"><use transform="matrix(0.05,0,0,0.05,0,0)" xlink:href="#aX"/><use transform="matrix(0.05,0,0,0.05,10,0)" xlink:href="#ag"/><use transform="matrix(0.05,0,0,0.05,20,0)" xlink:href="#bc"/><use transform="matrix(0.05,0,0,0.05,25,0)" xlink:href="#al"/><use transform="matrix(0.05,0,0,0.05,35,0)" xlink:href="#aT"/><use transform="matrix(0.05,0,0,0.05,38.95,0)" xlink:href="#ak"/><use transform="matrix(0.05,0,0,0.05,42.900000000000006,0)" xlink:href="#ao"/></g><path fill="#333" d="M205 0l-28-72H64L36 0H1l101-248h38L239 0h-34zm-38-99l-47-123c-12 45-31 82-46 123h93" id="bd"/><path fill="#333" d="M96-169c-40 0-48 33-48 73s9 75 48 75c24 0 41-14 43-38l32 2c-6 37-31 61-74 61-59 0-76-41-82-99-10-93 101-131 147-64 4 7 5 14 7 22l-32 3c-4-21-16-35-41-35" id="be"/><path fill="#333" d="M143 0L79-87 56-68V0H24v-261h32v163l83-92h37l-77 82L181 0h-38" id="bf"/><g id="G"><use transform="matrix(0.05,0,0,0.05,0,0)" xlink:href="#bd"/><use transform="matrix(0.05,0,0,0.05,12,0)" xlink:href="#be"/><use transform="matrix(0.05,0,0,0.05,21,0)" xlink:href="#bf"/></g><g id="H"><use transform="matrix(0.05,0,0,0.05,0,0)" xlink:href="#bb"/><use transform="matrix(0.05,0,0,0.05,12,0)" xlink:href="#aV"/><use transform="matrix(0.05,0,0,0.05,22,0)" xlink:href="#be"/><use transform="matrix(0.05,0,0,0.05,31,0)" xlink:href="#be"/><use transform="matrix(0.05,0,0,0.05,40,0)" xlink:href="#ag"/><use transform="matrix(0.05,0,0,0.05,50,0)" xlink:href="#ao"/><use transform="matrix(0.05,0,0,0.05,59,0)" xlink:href="#ao"/><use transform="matrix(0.05,0,0,0.05,68,0)" xlink:href="#aU"/><use transform="matrix(0.05,0,0,0.05,73,0)" xlink:href="#aV"/><use transform="matrix(0.05,0,0,0.05,83,0)" xlink:href="#ak"/><use transform="matrix(0.05,0,0,0.05,86.95,0)" xlink:href="#ak"/><use transform="matrix(0.05,0,0,0.05,90.9,0)" xlink:href="#am"/></g><path fill="#333" d="M177-190C167-65 218 103 67 71c-23-6-38-20-44-43l32-5c15 47 100 32 89-28v-30C133-14 115 1 83 1 29 1 15-40 15-95c0-56 16-97 71-98 29-1 48 16 59 35 1-10 0-23 2-32h30zM94-22c36 0 50-32 50-73 0-42-14-75-50-75-39 0-46 34-46 75s6 73 46 73" id="bg"/><g id="I"><use transform="matrix(0.05,0,0,0.05,0,0)" xlink:href="#ah"/><use transform="matrix(0.05,0,0,0.05,5.95,0)" xlink:href="#ag"/><use transform="matrix(0.05,0,0,0.05,15.949999999999998,0)" xlink:href="#bg"/><use transform="matrix(0.05,0,0,0.05,25.950000000000003,0)" xlink:href="#aT"/><use transform="matrix(0.05,0,0,0.05,29.899999999999995,0)" xlink:href="#ao"/><use transform="matrix(0.05,0,0,0.05,38.9,0)" xlink:href="#bc"/><use transform="matrix(0.05,0,0,0.05,43.9,0)" xlink:href="#ag"/><use transform="matrix(0.05,0,0,0.05,53.900000000000006,0)" xlink:href="#ah"/><use transform="matrix(0.05,0,0,0.05,59.85,0)" xlink:href="#bc"/><use transform="matrix(0.05,0,0,0.05,64.85,0)" xlink:href="#ag"/><use transform="matrix(0.05,0,0,0.05,74.85,0)" xlink:href="#aX"/></g><path fill="#333" d="M33 0v-248h34V0H33" id="bh"/><g id="J"><use transform="matrix(0.05,0,0,0.05,0,0)" xlink:href="#bh"/><use transform="matrix(0.05,0,0,0.05,5,0)" xlink:href="#af"/><use transform="matrix(0.05,0,0,0.05,15,0)" xlink:href="#aW"/><use transform="matrix(0.05,0,0,0.05,24,0)" xlink:href="#al"/><use transform="matrix(0.05,0,0,0.05,34,0)" xlink:href="#ak"/><use transform="matrix(0.05,0,0,0.05,37.95,0)" xlink:href="#aT"/><use transform="matrix(0.05,0,0,0.05,41.900000000000006,0)" xlink:href="#aX"/></g><path fill="#333" d="M33 0v-38h34V0H33" id="bi"/><use transform="matrix(0.05,0,0,0.05,0,0)" xlink:href="#bi" id="K"/><path fill="#333" d="M212-179c-10-28-35-45-73-45-59 0-87 40-87 99 0 60 29 101 89 101 43 0 62-24 78-52l27 14C228-24 195 4 139 4 59 4 22-46 18-125c-6-104 99-153 187-111 19 9 31 26 39 46" id="bj"/><path fill="#333" d="M106-169C34-169 62-67 57 0H25v-261h32l-1 103c12-21 28-36 61-36 89 0 53 116 60 194h-32v-121c2-32-8-49-39-48" id="bk"/><g id="L"><use transform="matrix(0.05,0,0,0.05,0,0)" xlink:href="#bj"/><use transform="matrix(0.05,0,0,0.05,12.950000000000001,0)" xlink:href="#bk"/><use transform="matrix(0.05,0,0,0.05,22.950000000000003,0)" xlink:href="#ag"/><use transform="matrix(0.05,0,0,0.05,32.95,0)" xlink:href="#be"/><use transform="matrix(0.05,0,0,0.05,41.95,0)" xlink:href="#bf"/></g><g id="M"><use transform="matrix(0.05,0,0,0.05,0,0)" xlink:href="#aT"/><use transform="matrix(0.05,0,0,0.05,3.95,0)" xlink:href="#af"/><use transform="matrix(0.05,0,0,0.05,13.949999999999998,0)" xlink:href="#aU"/><use transform="matrix(0.05,0,0,0.05,18.95,0)" xlink:href="#ai"/></g><g id="N"><use transform="matrix(0.05,0,0,0.05,0,0)" xlink:href="#aT"/><use transform="matrix(0.05,0,0,0.05,3.95,0)" xlink:href="#af"/><use transform="matrix(0.05,0,0,0.05,13.949999999999998,0)" xlink:href="#ao"/><use transform="matrix(0.05,0,0,0.05,22.95,0)" xlink:href="#ag"/><use transform="matrix(0.05,0,0,0.05,32.95,0)" xlink:href="#ah"/><use transform="matrix(0.05,0,0,0.05,38.900000000000006,0)" xlink:href="#bc"/></g></defs></g></svg>